<svg width="20" height="20" viewBox="0 0 20 20" fill="none" xmlns="http://www.w3.org/2000/svg">
<path d="M16.175 6.175L12.15 2.15001C11.8417 1.84167 11.4167 1.66667 10.975 1.66667H5C4.08334 1.66667 3.34167 2.41667 3.34167 3.33334L3.33334 16.6667C3.33334 17.5833 4.075 18.3333 4.99167 18.3333H15C15.9167 18.3333 16.6667 17.5833 16.6667 16.6667V7.35834C16.6667 6.91667 16.4917 6.49167 16.175 6.175ZM8.525 14.4083L6.75834 12.6417C6.43334 12.3167 6.43334 11.7917 6.75834 11.4667C7.08334 11.1417 7.60834 11.1417 7.93334 11.4667L9.10834 12.6417L12.0583 9.69167C12.3833 9.36667 12.9083 9.36667 13.2333 9.69167C13.5583 10.0167 13.5583 10.5417 13.2333 10.8667L9.7 14.4C9.38334 14.7333 8.85 14.7333 8.525 14.4083ZM11.6667 7.50001C11.2083 7.50001 10.8333 7.12501 10.8333 6.66667V2.91667L15.4167 7.50001H11.6667Z" fill="#DADEE6"/>
</svg>
