<svg width="10" height="10" viewBox="0 0 10 10" fill="none" xmlns="http://www.w3.org/2000/svg">
<path d="M10 1.89864C9.63225 2.06158 9.23719 2.17169 8.82189 2.22145C9.24557 1.96778 9.5706 1.56523 9.72385 1.08606C9.32748 1.32126 8.88839 1.49213 8.42113 1.58373C8.04676 1.18561 7.51387 0.93634 6.92371 0.93634C5.79098 0.93634 4.87228 1.85503 4.87228 2.98865C4.87234 3.14576 4.89007 3.30236 4.92513 3.45551C3.21942 3.36961 1.70836 2.55264 0.696293 1.31157C0.520147 1.61545 0.418831 1.96778 0.418831 2.34301C0.418831 3.0547 0.781308 3.68318 1.33137 4.05093C1.00558 4.04056 0.686991 3.95253 0.402099 3.79417V3.82059C0.402099 4.81458 1.10896 5.64389 2.04792 5.8324C1.87173 5.87993 1.69002 5.90392 1.50753 5.90374C1.37794 5.90384 1.24863 5.89175 1.1213 5.86763C1.38246 6.68238 2.13998 7.27606 3.03798 7.29191C2.3355 7.84242 1.45073 8.17053 0.489741 8.17053C0.324147 8.17053 0.160749 8.16084 0 8.14189C0.908141 8.72459 1.98627 9.06368 3.14455 9.06368C6.91887 9.06368 8.98221 5.93763 8.98221 3.22647C8.98221 3.1384 8.97999 3.04942 8.97603 2.96135C9.37681 2.67155 9.72473 2.31086 9.9991 1.89995L10 1.89864Z" fill="#1DA1F2"/>
</svg>
